<?xml version="1.0" encoding="UTF-8" standalone="no"?>
<!DOCTYPE svg PUBLIC "-//W3C//DTD SVG 1.1//EN" "http://www.w3.org/Graphics/SVG/1.1/DTD/svg11.dtd">
<svg xmlns="http://www.w3.org/2000/svg" version="1.1" viewBox="0.00 0.00 181.00 209.00">
<g stroke-width="2.00" fill="none" stroke-linecap="butt">
<path stroke="#7b6f48" vector-effect="non-scaling-stroke" d="
  M 2.76 93.95
  L 2.76 122.57"
/>
<path stroke="#76683e" vector-effect="non-scaling-stroke" d="
  M 2.76 122.57
  L 2.76 146.14"
/>
<path stroke="#6d5e2d" vector-effect="non-scaling-stroke" d="
  M 2.76 146.14
  L 2.77 162.16
  Q 2.77 162.62 3.19 162.83
  L 17.59 170.00"
/>
<path stroke="#5a4b1f" vector-effect="non-scaling-stroke" d="
  M 17.59 170.00
  L 28.57 175.56"
/>
<path stroke="#4d411a" vector-effect="non-scaling-stroke" d="
  M 28.57 175.56
  L 38.52 180.53"
/>
<path stroke="#433816" vector-effect="non-scaling-stroke" d="
  M 38.52 180.53
  L 50.49 186.47"
/>
<path stroke="#342c11" vector-effect="non-scaling-stroke" d="
  M 50.49 186.47
  L 60.65 191.62"
/>
<path stroke="#241e0b" vector-effect="non-scaling-stroke" d="
  M 60.65 191.62
  L 78.18 200.15"
/>
<path stroke="#110e05" vector-effect="non-scaling-stroke" d="
  M 78.18 200.15
  Q 83.82 203.31 89.26 205.09
  Q 91.27 205.74 93.14 204.91
  Q 98.43 202.57 103.41 200.05"
/>
<path stroke="#241e0b" vector-effect="non-scaling-stroke" d="
  M 103.41 200.05
  L 119.72 191.80"
/>
<path stroke="#342c11" vector-effect="non-scaling-stroke" d="
  M 119.72 191.80
  L 129.83 186.58"
/>
<path stroke="#433816" vector-effect="non-scaling-stroke" d="
  M 129.83 186.58
  L 140.94 181.20"
/>
<path stroke="#4d411a" vector-effect="non-scaling-stroke" d="
  M 140.94 181.20
  L 153.09 175.30"
/>
<path stroke="#5a4b1f" vector-effect="non-scaling-stroke" d="
  M 153.09 175.30
  L 165.32 169.09"
/>
<path stroke="#6d5e2d" vector-effect="non-scaling-stroke" d="
  M 165.32 169.09
  L 178.06 162.78
  A 0.69 0.69 0.0 0 0 178.45 162.16
  L 178.47 135.28"
/>
<path stroke="#76683e" vector-effect="non-scaling-stroke" d="
  M 178.47 135.28
  L 178.47 113.30"
/>
<path stroke="#7b6f48" vector-effect="non-scaling-stroke" d="
  M 178.47 113.30
  L 178.47 93.29"
/>
<path stroke="#7f7451" vector-effect="non-scaling-stroke" d="
  M 178.47 93.29
  L 178.47 47.02
  A 0.77 0.77 0.0 0 0 178.04 46.33
  L 90.97 2.79
  A 0.85 0.85 0.0 0 0 90.23 2.79
  L 3.21 46.30
  A 0.80 0.79 -13.3 0 0 2.77 47.01
  L 2.76 93.95"
/>
<path stroke="#f9e299" vector-effect="non-scaling-stroke" d="
  M 178.47 93.29
  Q 178.41 94.13 178.09 94.73
  A 0.36 0.35 8.7 0 1 177.84 94.91
  Q 177.63 94.95 177.59 94.81
  Q 177.46 94.36 176.99 94.36
  L 172.48 94.36
  Q 171.93 94.36 171.49 94.02
  Q 170.78 93.46 170.63 92.66
  Q 170.52 92.09 169.93 92.09
  L 157.51 92.16"
/>
<path stroke="#dacf76" vector-effect="non-scaling-stroke" d="
  M 157.51 92.16
  L 157.60 87.52
  Q 157.63 86.15 156.26 86.12
  L 151.74 86.01
  Q 150.36 85.97 150.39 87.36
  L 150.50 92.23"
/>
<path stroke="#f9e299" vector-effect="non-scaling-stroke" d="
  M 150.50 92.23
  L 134.93 91.91"
/>
<path stroke="#d6c96c" vector-effect="non-scaling-stroke" d="
  M 134.93 91.91
  L 134.88 89.54
  A 0.59 0.58 2.2 0 0 134.35 88.97
  Q 133.89 88.94 133.25 89.38"
/>
<path stroke="#f9e299" vector-effect="non-scaling-stroke" d="
  M 133.25 89.38
  Q 132.69 89.43 132.25 89.32
  Q 131.95 89.25 131.90 89.01
  Q 131.85 88.80 131.91 88.47"
/>
<path stroke="#dacf76" vector-effect="non-scaling-stroke" d="
  M 131.91 88.47
  Q 143.97 83.94 156.69 84.87
  Q 160.60 85.15 162.24 84.42
  Q 165.16 83.12 166.07 79.75
  Q 167.49 74.48 163.07 71.07
  Q 162.56 70.68 162.54 70.03
  L 162.26 62.19
  Q 162.24 61.67 161.80 61.40
  L 159.68 60.12"
/>
<path stroke="#f9e299" vector-effect="non-scaling-stroke" d="
  M 159.68 60.12
  Q 159.77 59.72 159.42 59.58
  Q 159.05 59.42 159.12 59.02
  L 159.21 58.56"
/>
<path stroke="#dacf76" vector-effect="non-scaling-stroke" d="
  M 159.21 58.56
  L 168.56 58.46"
/>
<path stroke="#f9e299" vector-effect="non-scaling-stroke" d="
  M 168.56 58.46
  Q 171.79 61.02 169.93 54.70
  Q 169.79 54.22 169.33 54.01
  Q 161.75 50.57 154.05 47.40
  Q 122.27 34.27 90.11 20.92
  A 2.55 2.52 44.0 0 0 88.13 20.94
  L 12.79 54.33
  Q 10.30 55.43 11.15 58.01
  L 11.36 58.63
  Q 12.05 60.76 14.17 60.04
  L 19.70 58.18"
/>
<path stroke="#dacf76" vector-effect="non-scaling-stroke" d="
  M 19.70 58.18
  L 20.26 58.83"
/>
<path stroke="#f9e299" vector-effect="non-scaling-stroke" d="
  M 20.26 58.83
  Q 19.58 63.47 20.45 68.09
  Q 20.54 68.59 20.24 69.00
  L 19.53 69.98"
/>
<path stroke="#dacf76" vector-effect="non-scaling-stroke" d="
  M 19.53 69.98
  C 12.17 73.70 13.77 83.99 22.02 85.00
  A 0.45 0.44 -88.5 0 0 22.52 84.52
  C 22.32 81.60 22.48 78.30 25.52 76.92
  C 28.66 75.49 31.54 77.93 31.87 81.11
  Q 32.04 82.73 31.96 84.33
  Q 31.93 85.03 32.63 85.07
  Q 38.60 85.43 44.13 87.18
  Q 45.20 87.52 45.13 86.40
  Q 44.83 82.03 48.02 80.45
  Q 50.30 79.32 52.37 80.90
  C 55.41 83.21 54.36 87.17 54.53 90.48
  Q 54.56 91.02 55.02 91.30
  L 63.14 96.12"
/>
<path stroke="#f9e299" vector-effect="non-scaling-stroke" d="
  M 63.14 96.12
  Q 59.96 98.35 54.75 97.79
  Q 54.29 97.74 53.31 98.21"
/>
<path stroke="#dacf76" vector-effect="non-scaling-stroke" d="
  M 53.31 98.21
  Q 53.40 91.74 53.14 84.00
  Q 53.08 82.32 50.57 81.42
  Q 49.97 81.20 49.38 81.41
  Q 46.51 82.43 46.43 85.48
  L 46.24 93.14"
/>
<path stroke="#f9e299" vector-effect="non-scaling-stroke" d="
  M 46.24 93.14
  Q 45.47 94.01 43.51 94.11
  Q 38.72 94.36 31.62 93.95
  Q 31.14 93.92 31.17 93.44
  Q 31.22 92.47 30.78 91.94"
/>
<path stroke="#d6c96c" vector-effect="non-scaling-stroke" d="
  M 30.78 91.94
  L 30.60 81.72
  Q 30.55 78.77 27.69 78.01
  Q 27.10 77.85 26.55 78.02
  Q 24.18 78.74 24.06 80.37
  Q 23.65 86.20 23.76 91.30"
/>
<path stroke="#f9e299" vector-effect="non-scaling-stroke" d="
  M 23.76 91.30
  Q 17.45 91.27 11.36 91.94
  Q 11.02 91.97 10.69 91.92
  Q 10.10 91.81 9.92 92.41
  Q 9.81 92.80 9.41 92.86
  C 8.08 93.05 7.15 92.32 6.06 92.31
  Q 3.36 92.30 2.76 93.95"
/>
<path stroke="#d2c464" vector-effect="non-scaling-stroke" d="
  M 134.93 91.91
  L 135.01 110.51"
/>
<path stroke="#cdbd5a" vector-effect="non-scaling-stroke" d="
  M 135.01 110.51
  L 134.93 129.21"
/>
<path stroke="#aba32c" vector-effect="non-scaling-stroke" d="
  M 134.93 129.21
  L 134.48 125.52
  A 0.95 0.95 0.0 0 0 133.11 124.79
  Q 131.71 125.50 130.31 124.86
  Q 129.89 124.67 129.50 124.91
  Q 128.13 125.72 128.08 128.60"
/>
<path stroke="#cdbd5a" vector-effect="non-scaling-stroke" d="
  M 128.08 128.60
  L 128.03 106.33"
/>
<path stroke="#f0d686" vector-effect="non-scaling-stroke" d="
  M 178.47 113.30
  L 172.40 113.20
  Q 171.91 113.19 171.53 112.87
  Q 170.53 112.00 169.51 111.90
  Q 163.31 111.24 157.53 112.72"
/>
<path stroke="#d2c464" vector-effect="non-scaling-stroke" d="
  M 157.53 112.72
  L 157.47 104.10"
/>
<path stroke="#d2c464" vector-effect="non-scaling-stroke" d="
  M 150.50 108.23
  L 150.40 109.00"
/>
<path stroke="#f0d686" vector-effect="non-scaling-stroke" d="
  M 150.40 109.00
  Q 150.65 111.23 148.01 111.12
  Q 141.55 110.84 136.49 112.02
  Q 135.24 112.31 135.01 110.51"
/>
<path stroke="#d6ca6d" vector-effect="non-scaling-stroke" d="
  M 131.91 88.47
  Q 124.39 91.50 117.45 96.33"
/>
<path stroke="#b3b141" vector-effect="non-scaling-stroke" d="
  M 117.45 96.33
  Q 117.44 95.63 118.41 95.04
  Q 118.84 94.79 118.47 94.45
  Q 118.17 94.18 117.58 94.42
  A 0.44 0.44 0.0 0 0 117.34 94.66
  Q 117.25 94.90 117.00 94.98
  Q 115.70 95.41 114.77 95.35
  Q 111.78 95.17 108.30 95.12
  Q 106.15 95.09 103.55 95.57
  Q 101.34 95.98 98.85 95.65
  A 1.28 1.27 -58.0 0 0 97.95 95.86
  Q 97.26 96.31 96.50 95.90
  Q 96.21 95.75 96.45 95.97
  Q 96.55 96.06 96.46 96.23
  Q 96.41 96.33 96.31 96.35
  L 93.70 96.86"
/>
<path stroke="#d6ca6d" vector-effect="non-scaling-stroke" d="
  M 93.70 96.86
  L 95.94 94.69"
/>
<path stroke="#dacf76" vector-effect="non-scaling-stroke" d="
  M 95.94 94.69
  C 107.14 84.65 118.26 76.63 132.85 72.05
  Q 134.52 71.53 132.77 71.54
  L 48.78 72.12
  Q 47.41 72.13 48.73 72.52
  C 63.18 76.86 74.63 85.19 85.97 94.99"
/>
<path stroke="#d6ca6d" vector-effect="non-scaling-stroke" d="
  M 85.97 94.99
  L 89.39 98.13
  A 0.73 0.73 0.0 0 1 89.40 99.20
  L 79.61 108.40
  A 0.61 0.60 -45.3 0 1 78.79 108.41
  L 75.75 105.67
  Q 75.29 105.25 75.28 104.63
  Q 75.20 100.22 75.30 95.80
  C 75.41 90.38 68.66 88.10 66.42 93.27
  C 65.87 94.52 66.00 95.75 65.97 97.07
  Q 65.95 97.86 65.28 97.44
  L 63.14 96.12"
/>
<path stroke="#d6ca6d" vector-effect="non-scaling-stroke" d="
  M 168.56 58.46
  Q 169.77 57.44 168.91 55.69
  A 1.32 1.30 88.0 0 0 168.22 55.04
  L 89.86 22.63
  A 1.81 1.79 -45.2 0 0 88.44 22.64
  Q 50.88 38.93 12.90 55.97
  Q 12.25 56.26 12.43 56.95
  L 12.77 58.22
  Q 12.97 58.94 13.65 58.65
  L 88.01 27.11
  A 2.39 2.38 -45.2 0 1 89.85 27.10
  L 156.68 54.77
  Q 157.24 55.01 157.09 55.60
  L 156.99 55.97
  Q 156.98 56.02 156.92 56.03
  Q 155.65 56.11 154.61 56.42
  Q 153.67 56.71 154.60 57.02
  L 159.21 58.56"
/>
<path stroke="#d6ca6d" vector-effect="non-scaling-stroke" d="
  M 159.68 60.12
  Q 158.28 59.66 155.25 59.67
  Q 88.62 59.90 22.01 60.07
  Q 21.25 60.07 21.24 60.83
  L 21.09 69.26
  Q 21.08 69.83 20.51 69.89
  L 19.53 69.98"
/>
<path stroke="#d6ca6d" vector-effect="non-scaling-stroke" d="
  M 20.26 58.83
  L 154.01 58.41
  Q 154.52 58.40 154.13 58.07
  Q 152.13 56.41 149.64 56.41
  Q 98.17 56.39 49.14 56.12
  A 0.69 0.68 -83.3 0 1 48.48 55.27
  L 48.60 54.78
  Q 48.75 54.17 48.12 54.18
  Q 41.66 54.27 35.56 54.27
  Q 35.03 54.27 34.76 53.79
  A 0.59 0.58 -26.4 0 1 35.04 52.97
  Q 61.23 41.72 88.08 30.92
  A 3.44 3.43 -45.1 0 1 90.62 30.91
  Q 118.04 41.55 146.22 53.33
  C 148.37 54.23 150.29 55.28 152.60 55.11
  Q 154.27 54.98 152.72 54.35
  L 89.89 28.57
  A 2.66 2.61 -44.8 0 0 87.88 28.58
  L 19.78 57.32
  A 0.45 0.44 -12.7 0 0 19.51 57.74
  Q 19.51 57.99 19.70 58.18"
/>
<path stroke="#d2c464" vector-effect="non-scaling-stroke" d="
  M 93.70 96.86
  Q 87.24 102.74 80.67 108.92
  Q 71.19 117.84 60.27 124.91"
/>
<path stroke="#cdbc58" vector-effect="non-scaling-stroke" d="
  M 60.27 124.91
  L 47.24 130.89"
/>
<path stroke="#f0d686" vector-effect="non-scaling-stroke" d="
  M 47.24 130.89
  Q 47.00 130.39 47.29 129.66"
/>
<path stroke="#d2c464" vector-effect="non-scaling-stroke" d="
  M 47.29 129.66
  Q 50.35 128.99 52.81 127.29
  Q 53.23 127.00 53.23 126.50
  L 53.24 107.37"
/>
<path stroke="#f0d686" vector-effect="non-scaling-stroke" d="
  M 46.27 103.88
  Q 40.59 103.75 35.50 104.82
  Q 34.13 105.11 30.76 104.14"
/>
<path stroke="#d6ca6d" vector-effect="non-scaling-stroke" d="
  M 53.31 98.21
  L 53.24 107.37"
/>
<path stroke="#b3b141" vector-effect="non-scaling-stroke" d="
  M 53.24 107.37
  Q 51.55 107.97 50.10 106.98
  Q 49.69 106.70 49.20 106.77
  Q 47.75 106.98 46.82 108.07
  Q 46.49 108.46 46.48 108.96
  L 46.36 112.29"
/>
<path stroke="#d1c363" vector-effect="non-scaling-stroke" d="
  M 46.36 112.29
  L 46.27 103.88"
/>
<path stroke="#d6ca6d" vector-effect="non-scaling-stroke" d="
  M 46.27 103.88
  L 46.24 93.14"
/>
<path stroke="#d2c464" vector-effect="non-scaling-stroke" d="
  M 30.78 91.94
  L 30.76 104.14"
/>
<path stroke="#cdbd5a" vector-effect="non-scaling-stroke" d="
  M 30.76 104.14
  L 30.81 132.15
  Q 30.81 133.00 29.96 133.01
  L 24.73 133.10
  Q 23.71 133.11 23.71 132.09
  L 23.71 121.72"
/>
<path stroke="#d2c464" vector-effect="non-scaling-stroke" d="
  M 23.71 121.72
  L 23.76 91.30"
/>
<path stroke="#d6ca6d" vector-effect="non-scaling-stroke" d="
  M 157.51 92.16
  L 157.47 104.10"
/>
<path stroke="#b3b141" vector-effect="non-scaling-stroke" d="
  M 157.47 104.10
  Q 155.15 102.34 151.34 105.61
  Q 150.97 105.93 150.87 106.41
  L 150.50 108.23"
/>
<path stroke="#d6ca6d" vector-effect="non-scaling-stroke" d="
  M 150.50 108.23
  L 150.50 92.23"
/>
<path stroke="#d2c464" vector-effect="non-scaling-stroke" d="
  M 133.25 89.38
  L 128.67 91.46
  Q 128.18 91.68 128.18 92.21
  L 128.03 106.33"
/>
<path stroke="#f0d686" vector-effect="non-scaling-stroke" d="
  M 128.03 106.33
  Q 126.45 106.13 126.48 106.73
  A 0.90 0.89 3.1 0 1 125.43 107.66
  Q 119.49 106.61 114.23 107.19"
/>
<path stroke="#d2c464" vector-effect="non-scaling-stroke" d="
  M 114.23 107.19
  L 114.20 100.90
  A 0.29 0.28 70.1 0 0 113.74 100.68
  L 107.90 105.36
  A 2.07 2.06 70.6 0 0 107.13 106.97
  L 107.08 119.22"
/>
<path stroke="#f0d686" vector-effect="non-scaling-stroke" d="
  M 107.08 119.22
  Q 106.58 119.03 106.17 119.21"
/>
<path stroke="#d2c464" vector-effect="non-scaling-stroke" d="
  M 106.17 119.21
  L 105.92 114.06
  Q 105.89 113.51 105.49 113.13
  L 102.93 110.69
  A 0.66 0.65 45.3 0 0 102.03 110.68
  L 91.77 120.13"
/>
<path stroke="#f0d686" vector-effect="non-scaling-stroke" d="
  M 91.77 120.13
  Q 93.04 120.17 91.16 119.27"
/>
<path stroke="#d2c464" vector-effect="non-scaling-stroke" d="
  M 91.16 119.27
  C 99.84 111.32 107.88 103.13 117.45 96.33"
/>
<path stroke="#f0d686" vector-effect="non-scaling-stroke" d="
  M 23.71 121.72
  Q 23.37 122.14 22.87 121.34
  Q 22.64 120.97 22.20 120.97
  L 10.94 121.14
  A 0.85 0.84 -84.4 0 0 10.13 121.81
  L 10.08 122.08
  Q 9.98 122.56 9.49 122.56
  L 2.76 122.57"
/>
<path stroke="#c9b54e" vector-effect="non-scaling-stroke" d="
  M 128.08 128.60
  C 127.90 130.96 127.46 135.01 128.80 136.97
  C 130.48 139.42 134.44 138.42 134.82 135.51
  Q 135.09 133.44 134.93 129.21"
/>
<path stroke="#e2c56b" vector-effect="non-scaling-stroke" d="
  M 178.47 135.28
  Q 177.84 136.12 176.99 135.87
  Q 176.24 135.65 175.46 135.63
  Q 174.97 135.61 174.51 135.43
  Q 168.08 132.92 161.14 133.68
  Q 160.97 133.70 161.11 133.60
  Q 161.24 133.52 161.31 133.39
  Q 161.56 132.93 161.03 132.99
  Q 159.58 133.16 158.81 133.80"
/>
<path stroke="#c9b54e" vector-effect="non-scaling-stroke" d="
  M 158.81 133.80
  C 158.57 136.07 158.78 138.53 157.78 140.48
  C 156.23 143.50 152.36 143.66 150.39 140.84
  C 149.17 139.10 149.53 136.92 149.39 134.92
  A 0.87 0.86 89.6 0 0 148.58 134.11
  Q 142.34 133.80 136.87 132.07
  Q 135.79 131.73 135.95 132.85
  C 137.11 140.67 126.89 142.04 126.88 133.76
  Q 126.88 131.24 126.81 128.81
  Q 126.79 128.22 126.26 127.96
  Q 120.77 125.29 116.20 121.73
  Q 115.22 120.97 115.31 122.21
  C 115.67 127.47 111.20 131.60 106.93 127.15"
/>
<path stroke="#cdbd5a" vector-effect="non-scaling-stroke" d="
  M 106.93 127.15
  Q 105.71 123.64 106.17 119.21"
/>
<path stroke="#cdbd5a" vector-effect="non-scaling-stroke" d="
  M 157.53 112.72
  Q 157.45 125.55 157.59 137.09
  C 157.67 143.55 150.28 143.19 150.38 137.75
  Q 150.63 123.35 150.40 109.00"
/>
<path stroke="#cdbd5a" vector-effect="non-scaling-stroke" d="
  M 91.16 119.27
  L 83.23 126.32"
/>
<path stroke="#aba32c" vector-effect="non-scaling-stroke" d="
  M 83.23 126.32
  Q 83.59 125.29 84.51 124.45
  Q 84.96 124.04 84.35 124.02
  Q 81.73 123.93 79.23 123.85
  Q 78.40 123.82 77.57 124.12
  C 76.34 124.56 75.15 124.14 73.91 124.17
  Q 70.53 124.25 66.99 124.40
  Q 66.82 124.40 65.02 124.74
  Q 64.03 124.93 62.99 124.64
  Q 62.51 124.51 62.06 124.72
  Q 61.14 125.13 60.27 124.91"
/>
<path stroke="#f9e299" vector-effect="non-scaling-stroke" d="
  M 95.94 94.69
  L 89.88 95.56
  Q 89.37 95.63 88.90 95.43
  Q 88.39 95.21 87.91 95.42
  Q 87.50 95.60 87.12 95.38
  Q 86.58 95.05 85.97 94.99"
/>
<path stroke="#cdbd5a" vector-effect="non-scaling-stroke" d="
  M 46.36 112.29
  L 46.30 129.26
  Q 46.30 129.81 46.86 129.78
  Q 47.05 129.77 47.29 129.66"
/>
<path stroke="#c9b54e" vector-effect="non-scaling-stroke" d="
  M 47.24 130.89
  Q 36.23 134.62 24.56 134.17
  Q 20.91 134.03 19.50 134.58
  C 15.15 136.25 13.67 141.61 15.81 145.63"
/>
<path stroke="#e2c56b" vector-effect="non-scaling-stroke" d="
  M 15.81 145.63
  Q 13.20 146.05 11.25 145.87
  Q 10.42 145.80 9.90 146.25
  Q 9.54 146.56 9.05 146.61
  Q 5.74 146.94 2.76 146.14"
/>
<path stroke="#c0ab3d" vector-effect="non-scaling-stroke" d="
  M 68.23 137.57
  Q 47.17 150.89 21.50 149.25
  Q 17.76 149.01 15.81 145.63"
/>
<path stroke="#aba32c" vector-effect="non-scaling-stroke" d="
  M 106.93 127.15
  L 106.40 126.96
  Q 105.97 126.79 105.60 127.06
  Q 105.21 127.34 104.74 127.23
  Q 104.25 127.11 103.76 127.26
  L 102.43 127.67
  Q 102.03 127.80 101.65 127.62
  Q 101.06 127.35 100.34 128.00"
/>
<path stroke="#cdbd5a" vector-effect="non-scaling-stroke" d="
  M 100.34 128.00
  L 91.77 120.13"
/>
<path stroke="#cdbd5a" vector-effect="non-scaling-stroke" d="
  M 114.23 107.19
  Q 114.34 116.01 114.10 124.49
  Q 114.03 127.32 110.90 127.99
  Q 110.49 128.07 110.08 127.95
  Q 107.51 127.13 107.33 125.51
  Q 106.84 121.18 107.08 119.22"
/>
<path stroke="#c9b54e" vector-effect="non-scaling-stroke" d="
  M 100.34 128.00
  L 112.95 137.71"
/>
<path stroke="#e2c56b" vector-effect="non-scaling-stroke" d="
  M 112.95 137.71
  Q 111.36 139.05 109.71 138.18
  Q 109.53 138.09 109.33 138.12
  Q 109.19 138.14 109.10 138.27
  Q 108.99 138.43 108.80 138.41
  Q 104.18 137.79 102.71 137.84
  Q 93.49 138.10 83.42 137.97
  Q 83.34 137.97 76.10 138.22
  Q 72.21 138.35 68.23 137.57"
/>
<path stroke="#c9b54e" vector-effect="non-scaling-stroke" d="
  M 68.23 137.57
  Q 76.46 132.36 83.23 126.32"
/>
<path stroke="#c6a84b" vector-effect="non-scaling-stroke" d="
  M 165.32 169.09
  L 128.52 169.17"
/>
<path stroke="#ebd17d" vector-effect="non-scaling-stroke" d="
  M 128.52 169.17
  L 128.44 154.31
  Q 128.42 151.72 125.83 151.71
  L 125.53 151.70
  A 2.27 2.27 0.0 0 0 123.26 153.97
  L 123.26 161.51
  Q 123.26 162.04 122.73 162.04
  L 112.51 162.07
  A 0.39 0.38 0.7 0 1 112.12 161.68
  L 112.16 153.99
  A 2.21 2.21 0.0 0 0 110.77 151.92
  Q 109.64 151.46 108.73 151.76
  Q 107.04 152.32 107.03 154.09
  L 106.93 168.41"
/>
<path stroke="#c6a84b" vector-effect="non-scaling-stroke" d="
  M 106.93 168.41
  Q 106.37 166.24 101.32 166.81"
/>
<path stroke="#ebd17d" vector-effect="non-scaling-stroke" d="
  M 101.32 166.81
  Q 101.34 164.91 99.87 164.38
  Q 98.22 163.80 97.51 165.40
  L 96.33 168.09
  A 0.53 0.52 -52.8 0 1 95.45 168.22
  L 92.09 164.16
  A 0.52 0.52 0.0 0 1 92.23 163.37
  Q 93.88 162.39 95.24 161.07
  C 97.68 158.70 97.11 154.70 94.34 152.94
  Q 90.67 150.60 86.31 152.36
  C 81.83 154.18 81.70 159.17 84.82 162.30
  A 0.61 0.61 0.0 0 1 84.73 163.25
  Q 83.51 164.06 82.37 164.87
  Q 79.19 167.10 79.13 172.09"
/>
<path stroke="#b99d46" vector-effect="non-scaling-stroke" d="
  M 79.13 172.09
  Q 77.97 170.56 74.47 171.03"
/>
<path stroke="#ebd17d" vector-effect="non-scaling-stroke" d="
  M 74.47 171.03
  C 77.01 163.50 75.11 153.41 66.26 151.95
  C 54.00 149.92 48.34 159.20 51.48 170.38"
/>
<path stroke="#c6a84b" vector-effect="non-scaling-stroke" d="
  M 51.48 170.38
  Q 44.61 169.76 37.75 170.43
  Q 37.09 170.49 36.53 170.25
  A 1.70 1.59 55.1 0 0 35.87 170.11
  L 17.59 170.00"
/>
<path stroke="#c0ab3d" vector-effect="non-scaling-stroke" d="
  M 158.81 133.80
  Q 165.02 134.52 166.08 139.70
  C 167.12 144.74 164.26 148.92 159.00 149.19
  Q 151.57 149.57 145.22 149.13
  C 133.68 148.33 122.94 143.94 112.95 137.71"
/>
<path stroke="#d8be6f" vector-effect="non-scaling-stroke" d="
  M 128.52 169.17
  L 128.67 175.54"
/>
<path stroke="#cbb46a" vector-effect="non-scaling-stroke" d="
  M 128.67 175.54
  Q 125.21 181.12 123.03 175.04"
/>
<path stroke="#d8be6f" vector-effect="non-scaling-stroke" d="
  M 123.03 175.04
  L 123.11 166.96
  Q 123.11 166.41 122.55 166.40
  L 112.93 166.36
  Q 112.34 166.36 112.34 166.94
  L 112.31 175.23"
/>
<path stroke="#cbb46a" vector-effect="non-scaling-stroke" d="
  M 112.31 175.23
  Q 110.16 180.74 106.87 175.99"
/>
<path stroke="#d8be6f" vector-effect="non-scaling-stroke" d="
  M 106.87 175.99
  L 106.93 168.41"
/>
<path stroke="#cbb46a" vector-effect="non-scaling-stroke" d="
  M 74.47 171.03
  C 71.33 178.32 62.36 179.69 55.94 176.16"
/>
<path stroke="#d8be6f" vector-effect="non-scaling-stroke" d="
  M 55.94 176.16
  Q 52.87 174.10 51.48 170.38"
/>
<path stroke="#8f7830" vector-effect="non-scaling-stroke" d="
  M 140.94 181.20
  Q 122.93 180.55 117.99 180.71
  Q 109.10 180.99 104.00 180.76
  Q 103.24 180.72 102.53 180.84
  Q 101.72 180.97 100.94 180.86
  C 97.78 180.39 94.88 180.86 91.77 180.89
  Q 85.20 180.96 78.94 180.62
  C 77.00 180.52 74.72 181.08 72.25 180.62
  Q 71.78 180.53 71.23 180.70
  Q 70.61 180.88 70.25 180.88
  Q 54.40 180.94 38.52 180.53"
/>
<path stroke="#a68b38" vector-effect="non-scaling-stroke" d="
  M 106.87 175.99
  Q 105.42 173.67 103.24 175.04"
/>
<path stroke="#d8be6f" vector-effect="non-scaling-stroke" d="
  M 101.32 166.81
  L 99.58 171.16
  Q 99.40 171.61 99.77 171.94
  L 103.24 175.04"
/>
<path stroke="#cbb46a" vector-effect="non-scaling-stroke" d="
  M 103.24 175.04
  Q 103.80 177.78 100.80 177.90
  A 2.05 2.04 -27.1 0 1 99.46 177.47
  L 97.03 175.57
  Q 96.43 175.09 95.78 175.49
  Q 84.65 182.14 79.13 172.09"
/>
<path stroke="#a68b38" vector-effect="non-scaling-stroke" d="
  M 153.09 175.30
  L 128.67 175.54"
/>
<path stroke="#a68b38" vector-effect="non-scaling-stroke" d="
  M 55.94 176.16
  L 28.57 175.56"
/>
<path stroke="#a68b38" vector-effect="non-scaling-stroke" d="
  M 123.03 175.04
  L 112.31 175.23"
/>
<path stroke="#766327" vector-effect="non-scaling-stroke" d="
  M 129.83 186.58
  L 50.49 186.47"
/>
<path stroke="#57491c" vector-effect="non-scaling-stroke" d="
  M 119.72 191.80
  L 60.65 191.62"
/>
<path stroke="#342b10" vector-effect="non-scaling-stroke" d="
  M 103.41 200.05
  L 78.18 200.15"
/>
<path stroke="#d6ca6d" vector-effect="non-scaling-stroke" d="
  M 127.98 52.56
  Q 128.63 53.93 127.00 53.94
  Q 90.18 54.24 53.75 54.13
  Q 52.73 54.12 51.69 54.35
  Q 51.47 54.40 51.53 54.62
  L 51.60 54.89
  Q 51.62 54.95 51.69 54.95
  Q 98.40 54.84 144.47 55.17
  Q 148.08 55.20 144.73 53.86
  L 90.99 32.30
  A 3.72 3.69 -44.7 0 0 88.24 32.30
  Q 63.66 42.07 39.33 52.39
  Q 37.71 53.08 39.47 53.05
  Q 44.52 52.96 49.58 53.00
  Q 51.80 53.02 53.99 51.88
  Q 70.93 43.09 87.75 35.16
  Q 88.65 34.73 89.56 35.12
  Q 109.05 43.39 127.56 52.14
  A 0.91 0.85 1.9 0 1 127.98 52.56"
/>
<path stroke="#d6ca6d" vector-effect="non-scaling-stroke" d="
  M 55.53 52.31
  A 0.32 0.32 0.0 0 0 55.67 52.92
  L 124.78 52.73
  A 0.32 0.32 0.0 0 0 124.91 52.12
  L 88.93 36.05
  A 0.32 0.32 0.0 0 0 88.66 36.06
  L 55.53 52.31"
/>
<path stroke="#d2c464" vector-effect="non-scaling-stroke" d="
  M 67.13 117.84
  Q 67.12 118.83 67.92 118.23
  Q 70.33 116.42 72.99 114.25
  Q 74.22 113.25 74.23 111.72
  Q 74.29 102.57 73.97 95.39
  Q 73.83 92.17 70.63 91.82
  Q 70.25 91.78 69.89 91.89
  Q 67.27 92.64 67.26 95.36
  L 67.13 117.84"
/>
<path stroke="#d8be6f" vector-effect="non-scaling-stroke" d="
  M 56.92 169.83
  A 9.15 7.37 89.8 0 0 61.98 173.85
  A 9.17 7.38 89.6 0 0 69.08 170.11"
/>
<path stroke="#ebd17d" vector-effect="non-scaling-stroke" d="
  M 69.08 170.11
  A 9.17 7.37 89.6 0 0 69.56 160.44
  A 9.18 7.38 89.6 0 0 63.25 155.62
  A 9.18 7.38 89.7 0 0 56.68 160.19
  A 9.18 7.38 89.5 0 0 56.92 169.83"
/>
<path stroke="#c6a84b" vector-effect="non-scaling-stroke" d="
  M 69.08 170.11
  L 56.92 169.83"
/>
<path stroke="#ebd17d" vector-effect="non-scaling-stroke" d="
  M 88.12 159.75
  Q 89.12 161.44 90.68 160.24
  Q 91.49 159.61 92.12 158.83
  A 2.39 2.38 -51.0 0 0 91.77 155.47
  Q 90.53 154.46 89.24 154.86
  Q 85.86 155.92 88.12 159.75"
/>
<path stroke="#d8be6f" vector-effect="non-scaling-stroke" d="
  M 92.77 171.77
  L 87.54 166.04
  A 0.45 0.45 0.0 0 0 86.91 166.01
  L 85.89 166.94
  A 4.62 4.23 -42.4 0 0 85.33 173.18
  L 85.47 173.33
  A 4.62 4.23 -42.4 0 0 91.73 173.33
  L 92.75 172.41
  A 0.45 0.45 0.0 0 0 92.77 171.77"
/>
</g>
<path fill="#010100" fill-opacity="0.996" d="
  M 1.50 162.81
  L 1.50 46.35
  A 0.94 0.94 0.0 0 1 2.02 45.51
  L 90.16 1.47
  A 0.94 0.94 0.0 0 1 91.00 1.47
  L 179.16 45.51
  A 0.94 0.94 0.0 0 1 179.68 46.35
  L 179.67 162.81
  A 0.94 0.94 0.0 0 1 179.15 163.65
  L 91.00 207.69
  A 0.94 0.94 0.0 0 1 90.16 207.69
  L 2.02 163.65
  A 0.94 0.94 0.0 0 1 1.50 162.81
  Z
  M 2.76 93.95
  L 2.76 122.57
  L 2.76 146.14
  L 2.77 162.16
  Q 2.77 162.62 3.19 162.83
  L 17.59 170.00
  L 28.57 175.56
  L 38.52 180.53
  L 50.49 186.47
  L 60.65 191.62
  L 78.18 200.15
  Q 83.82 203.31 89.26 205.09
  Q 91.27 205.74 93.14 204.91
  Q 98.43 202.57 103.41 200.05
  L 119.72 191.80
  L 129.83 186.58
  L 140.94 181.20
  L 153.09 175.30
  L 165.32 169.09
  L 178.06 162.78
  A 0.69 0.69 0.0 0 0 178.45 162.16
  L 178.47 135.28
  L 178.47 113.30
  L 178.47 93.29
  L 178.47 47.02
  A 0.77 0.77 0.0 0 0 178.04 46.33
  L 90.97 2.79
  A 0.85 0.85 0.0 0 0 90.23 2.79
  L 3.21 46.30
  A 0.80 0.79 -13.3 0 0 2.77 47.01
  L 2.76 93.95
  Z"
/>
<path fill="#fde7a1" d="
  M 178.47 93.29
  Q 178.41 94.13 178.09 94.73
  A 0.36 0.35 8.7 0 1 177.84 94.91
  Q 177.63 94.95 177.59 94.81
  Q 177.46 94.36 176.99 94.36
  L 172.48 94.36
  Q 171.93 94.36 171.49 94.02
  Q 170.78 93.46 170.63 92.66
  Q 170.52 92.09 169.93 92.09
  L 157.51 92.16
  L 157.60 87.52
  Q 157.63 86.15 156.26 86.12
  L 151.74 86.01
  Q 150.36 85.97 150.39 87.36
  L 150.50 92.23
  L 134.93 91.91
  L 134.88 89.54
  A 0.59 0.58 2.2 0 0 134.35 88.97
  Q 133.89 88.94 133.25 89.38
  Q 132.69 89.43 132.25 89.32
  Q 131.95 89.25 131.90 89.01
  Q 131.85 88.80 131.91 88.47
  Q 143.97 83.94 156.69 84.87
  Q 160.60 85.15 162.24 84.42
  Q 165.16 83.12 166.07 79.75
  Q 167.49 74.48 163.07 71.07
  Q 162.56 70.68 162.54 70.03
  L 162.26 62.19
  Q 162.24 61.67 161.80 61.40
  L 159.68 60.12
  Q 159.77 59.72 159.42 59.58
  Q 159.05 59.42 159.12 59.02
  L 159.21 58.56
  L 168.56 58.46
  Q 171.79 61.02 169.93 54.70
  Q 169.79 54.22 169.33 54.01
  Q 161.75 50.57 154.05 47.40
  Q 122.27 34.27 90.11 20.92
  A 2.55 2.52 44.0 0 0 88.13 20.94
  L 12.79 54.33
  Q 10.30 55.43 11.15 58.01
  L 11.36 58.63
  Q 12.05 60.76 14.17 60.04
  L 19.70 58.18
  L 20.26 58.83
  Q 19.58 63.47 20.45 68.09
  Q 20.54 68.59 20.24 69.00
  L 19.53 69.98
  C 12.17 73.70 13.77 83.99 22.02 85.00
  A 0.45 0.44 -88.5 0 0 22.52 84.52
  C 22.32 81.60 22.48 78.30 25.52 76.92
  C 28.66 75.49 31.54 77.93 31.87 81.11
  Q 32.04 82.73 31.96 84.33
  Q 31.93 85.03 32.63 85.07
  Q 38.60 85.43 44.13 87.18
  Q 45.20 87.52 45.13 86.40
  Q 44.83 82.03 48.02 80.45
  Q 50.30 79.32 52.37 80.90
  C 55.41 83.21 54.36 87.17 54.53 90.48
  Q 54.56 91.02 55.02 91.30
  L 63.14 96.12
  Q 59.96 98.35 54.75 97.79
  Q 54.29 97.74 53.31 98.21
  Q 53.40 91.74 53.14 84.00
  Q 53.08 82.32 50.57 81.42
  Q 49.97 81.20 49.38 81.41
  Q 46.51 82.43 46.43 85.48
  L 46.24 93.14
  Q 45.47 94.01 43.51 94.11
  Q 38.72 94.36 31.62 93.95
  Q 31.14 93.92 31.17 93.44
  Q 31.22 92.47 30.78 91.94
  L 30.60 81.72
  Q 30.55 78.77 27.69 78.01
  Q 27.10 77.85 26.55 78.02
  Q 24.18 78.74 24.06 80.37
  Q 23.65 86.20 23.76 91.30
  Q 17.45 91.27 11.36 91.94
  Q 11.02 91.97 10.69 91.92
  Q 10.10 91.81 9.92 92.41
  Q 9.81 92.80 9.41 92.86
  C 8.08 93.05 7.15 92.32 6.06 92.31
  Q 3.36 92.30 2.76 93.95
  L 2.77 47.01
  A 0.80 0.79 -13.3 0 1 3.21 46.30
  L 90.23 2.79
  A 0.85 0.85 0.0 0 1 90.97 2.79
  L 178.04 46.33
  A 0.77 0.77 0.0 0 1 178.47 47.02
  L 178.47 93.29
  Z"
/>
<path fill="#f4dc90" d="
  M 168.56 58.46
  Q 169.77 57.44 168.91 55.69
  A 1.32 1.30 88.0 0 0 168.22 55.04
  L 89.86 22.63
  A 1.81 1.79 -45.2 0 0 88.44 22.64
  Q 50.88 38.93 12.90 55.97
  Q 12.25 56.26 12.43 56.95
  L 12.77 58.22
  Q 12.97 58.94 13.65 58.65
  L 88.01 27.11
  A 2.39 2.38 -45.2 0 1 89.85 27.10
  L 156.68 54.77
  Q 157.24 55.01 157.09 55.60
  L 156.99 55.97
  Q 156.98 56.02 156.92 56.03
  Q 155.65 56.11 154.61 56.42
  Q 153.67 56.71 154.60 57.02
  L 159.21 58.56
  L 159.12 59.02
  Q 159.05 59.42 159.42 59.58
  Q 159.77 59.72 159.68 60.12
  Q 158.28 59.66 155.25 59.67
  Q 88.62 59.90 22.01 60.07
  Q 21.25 60.07 21.24 60.83
  L 21.09 69.26
  Q 21.08 69.83 20.51 69.89
  L 19.53 69.98
  L 20.24 69.00
  Q 20.54 68.59 20.45 68.09
  Q 19.58 63.47 20.26 58.83
  L 154.01 58.41
  Q 154.52 58.40 154.13 58.07
  Q 152.13 56.41 149.64 56.41
  Q 98.17 56.39 49.14 56.12
  A 0.69 0.68 -83.3 0 1 48.48 55.27
  L 48.60 54.78
  Q 48.75 54.17 48.12 54.18
  Q 41.66 54.27 35.56 54.27
  Q 35.03 54.27 34.76 53.79
  A 0.59 0.58 -26.4 0 1 35.04 52.97
  Q 61.23 41.72 88.08 30.92
  A 3.44 3.43 -45.1 0 1 90.62 30.91
  Q 118.04 41.55 146.22 53.33
  C 148.37 54.23 150.29 55.28 152.60 55.11
  Q 154.27 54.98 152.72 54.35
  L 89.89 28.57
  A 2.66 2.61 -44.8 0 0 87.88 28.58
  L 19.78 57.32
  A 0.45 0.44 -12.7 0 0 19.51 57.74
  Q 19.51 57.99 19.70 58.18
  L 14.17 60.04
  Q 12.05 60.76 11.36 58.63
  L 11.15 58.01
  Q 10.30 55.43 12.79 54.33
  L 88.13 20.94
  A 2.55 2.52 44.0 0 1 90.11 20.92
  Q 122.27 34.27 154.05 47.40
  Q 161.75 50.57 169.33 54.01
  Q 169.79 54.22 169.93 54.70
  Q 171.79 61.02 168.56 58.46
  Z
  M 127.98 52.56
  Q 128.63 53.93 127.00 53.94
  Q 90.18 54.24 53.75 54.13
  Q 52.73 54.12 51.69 54.35
  Q 51.47 54.40 51.53 54.62
  L 51.60 54.89
  Q 51.62 54.95 51.69 54.95
  Q 98.40 54.84 144.47 55.17
  Q 148.08 55.20 144.73 53.86
  L 90.99 32.30
  A 3.72 3.69 -44.7 0 0 88.24 32.30
  Q 63.66 42.07 39.33 52.39
  Q 37.71 53.08 39.47 53.05
  Q 44.52 52.96 49.58 53.00
  Q 51.80 53.02 53.99 51.88
  Q 70.93 43.09 87.75 35.16
  Q 88.65 34.73 89.56 35.12
  Q 109.05 43.39 127.56 52.14
  A 0.91 0.85 1.9 0 1 127.98 52.56
  Z
  M 55.53 52.31
  A 0.32 0.32 0.0 0 0 55.67 52.92
  L 124.78 52.73
  A 0.32 0.32 0.0 0 0 124.91 52.12
  L 88.93 36.05
  A 0.32 0.32 0.0 0 0 88.66 36.06
  L 55.53 52.31
  Z"
/>
<path fill="#b7b74a" d="
  M 168.56 58.46
  L 159.21 58.56
  L 154.60 57.02
  Q 153.67 56.71 154.61 56.42
  Q 155.65 56.11 156.92 56.03
  Q 156.98 56.02 156.99 55.97
  L 157.09 55.60
  Q 157.24 55.01 156.68 54.77
  L 89.85 27.10
  A 2.39 2.38 -45.2 0 0 88.01 27.11
  L 13.65 58.65
  Q 12.97 58.94 12.77 58.22
  L 12.43 56.95
  Q 12.25 56.26 12.90 55.97
  Q 50.88 38.93 88.44 22.64
  A 1.81 1.79 -45.2 0 1 89.86 22.63
  L 168.22 55.04
  A 1.32 1.30 88.0 0 1 168.91 55.69
  Q 169.77 57.44 168.56 58.46
  Z"
/>
<path fill="#b7b74a" d="
  M 20.26 58.83
  L 19.70 58.18
  Q 19.51 57.99 19.51 57.74
  A 0.45 0.44 -12.7 0 1 19.78 57.32
  L 87.88 28.58
  A 2.66 2.61 -44.8 0 1 89.89 28.57
  L 152.72 54.35
  Q 154.27 54.98 152.60 55.11
  C 150.29 55.28 148.37 54.23 146.22 53.33
  Q 118.04 41.55 90.62 30.91
  A 3.44 3.43 -45.1 0 0 88.08 30.92
  Q 61.23 41.72 35.04 52.97
  A 0.59 0.58 -26.4 0 0 34.76 53.79
  Q 35.03 54.27 35.56 54.27
  Q 41.66 54.27 48.12 54.18
  Q 48.75 54.17 48.60 54.78
  L 48.48 55.27
  A 0.69 0.68 -83.3 0 0 49.14 56.12
  Q 98.17 56.39 149.64 56.41
  Q 152.13 56.41 154.13 58.07
  Q 154.52 58.40 154.01 58.41
  L 20.26 58.83
  Z"
/>
<path fill="#b7b74a" d="
  M 127.98 52.56
  A 0.91 0.85 1.9 0 0 127.56 52.14
  Q 109.05 43.39 89.56 35.12
  Q 88.65 34.73 87.75 35.16
  Q 70.93 43.09 53.99 51.88
  Q 51.80 53.02 49.58 53.00
  Q 44.52 52.96 39.47 53.05
  Q 37.71 53.08 39.33 52.39
  Q 63.66 42.07 88.24 32.30
  A 3.72 3.69 -44.7 0 1 90.99 32.30
  L 144.73 53.86
  Q 148.08 55.20 144.47 55.17
  Q 98.40 54.84 51.69 54.95
  Q 51.62 54.95 51.60 54.89
  L 51.53 54.62
  Q 51.47 54.40 51.69 54.35
  Q 52.73 54.12 53.75 54.13
  Q 90.18 54.24 127.00 53.94
  Q 128.63 53.93 127.98 52.56
  Z"
/>
<path fill="#b7b74a" d="
  M 55.53 52.31
  L 88.66 36.06
  A 0.32 0.32 0.0 0 1 88.93 36.05
  L 124.91 52.12
  A 0.32 0.32 0.0 0 1 124.78 52.73
  L 55.67 52.92
  A 0.32 0.32 0.0 0 1 55.53 52.31
  Z"
/>
<path fill="#b7b74a" d="
  M 159.68 60.12
  L 161.80 61.40
  Q 162.24 61.67 162.26 62.19
  L 162.54 70.03
  Q 162.56 70.68 163.07 71.07
  Q 167.49 74.48 166.07 79.75
  Q 165.16 83.12 162.24 84.42
  Q 160.60 85.15 156.69 84.87
  Q 143.97 83.94 131.91 88.47
  Q 124.39 91.50 117.45 96.33
  Q 117.44 95.63 118.41 95.04
  Q 118.84 94.79 118.47 94.45
  Q 118.17 94.18 117.58 94.42
  A 0.44 0.44 0.0 0 0 117.34 94.66
  Q 117.25 94.90 117.00 94.98
  Q 115.70 95.41 114.77 95.35
  Q 111.78 95.17 108.30 95.12
  Q 106.15 95.09 103.55 95.57
  Q 101.34 95.98 98.85 95.65
  A 1.28 1.27 -58.0 0 0 97.95 95.86
  Q 97.26 96.31 96.50 95.90
  Q 96.21 95.75 96.45 95.97
  Q 96.55 96.06 96.46 96.23
  Q 96.41 96.33 96.31 96.35
  L 93.70 96.86
  L 95.94 94.69
  C 107.14 84.65 118.26 76.63 132.85 72.05
  Q 134.52 71.53 132.77 71.54
  L 48.78 72.12
  Q 47.41 72.13 48.73 72.52
  C 63.18 76.86 74.63 85.19 85.97 94.99
  L 89.39 98.13
  A 0.73 0.73 0.0 0 1 89.40 99.20
  L 79.61 108.40
  A 0.61 0.60 -45.3 0 1 78.79 108.41
  L 75.75 105.67
  Q 75.29 105.25 75.28 104.63
  Q 75.20 100.22 75.30 95.80
  C 75.41 90.38 68.66 88.10 66.42 93.27
  C 65.87 94.52 66.00 95.75 65.97 97.07
  Q 65.95 97.86 65.28 97.44
  L 63.14 96.12
  L 55.02 91.30
  Q 54.56 91.02 54.53 90.48
  C 54.36 87.17 55.41 83.21 52.37 80.90
  Q 50.30 79.32 48.02 80.45
  Q 44.83 82.03 45.13 86.40
  Q 45.20 87.52 44.13 87.18
  Q 38.60 85.43 32.63 85.07
  Q 31.93 85.03 31.96 84.33
  Q 32.04 82.73 31.87 81.11
  C 31.54 77.93 28.66 75.49 25.52 76.92
  C 22.48 78.30 22.32 81.60 22.52 84.52
  A 0.45 0.44 -88.5 0 1 22.02 85.00
  C 13.77 83.99 12.17 73.70 19.53 69.98
  L 20.51 69.89
  Q 21.08 69.83 21.09 69.26
  L 21.24 60.83
  Q 21.25 60.07 22.01 60.07
  Q 88.62 59.90 155.25 59.67
  Q 158.28 59.66 159.68 60.12
  Z"
/>
<path fill="#fde7a1" d="
  M 95.94 94.69
  L 89.88 95.56
  Q 89.37 95.63 88.90 95.43
  Q 88.39 95.21 87.91 95.42
  Q 87.50 95.60 87.12 95.38
  Q 86.58 95.05 85.97 94.99
  C 74.63 85.19 63.18 76.86 48.73 72.52
  Q 47.41 72.13 48.78 72.12
  L 132.77 71.54
  Q 134.52 71.53 132.85 72.05
  C 118.26 76.63 107.14 84.65 95.94 94.69
  Z"
/>
<path fill="#afab37" d="
  M 30.78 91.94
  L 30.76 104.14
  L 30.81 132.15
  Q 30.81 133.00 29.96 133.01
  L 24.73 133.10
  Q 23.71 133.11 23.71 132.09
  L 23.71 121.72
  L 23.76 91.30
  Q 23.65 86.20 24.06 80.37
  Q 24.18 78.74 26.55 78.02
  Q 27.10 77.85 27.69 78.01
  Q 30.55 78.77 30.60 81.72
  L 30.78 91.94
  Z"
/>
<path fill="#b7b74a" d="
  M 53.31 98.21
  L 53.24 107.37
  Q 51.55 107.97 50.10 106.98
  Q 49.69 106.70 49.20 106.77
  Q 47.75 106.98 46.82 108.07
  Q 46.49 108.46 46.48 108.96
  L 46.36 112.29
  L 46.27 103.88
  L 46.24 93.14
  L 46.43 85.48
  Q 46.51 82.43 49.38 81.41
  Q 49.97 81.20 50.57 81.42
  Q 53.08 82.32 53.14 84.00
  Q 53.40 91.74 53.31 98.21
  Z"
/>
<path fill="#b7b74a" d="
  M 157.51 92.16
  L 157.47 104.10
  Q 155.15 102.34 151.34 105.61
  Q 150.97 105.93 150.87 106.41
  L 150.50 108.23
  L 150.50 92.23
  L 150.39 87.36
  Q 150.36 85.97 151.74 86.01
  L 156.26 86.12
  Q 157.63 86.15 157.60 87.52
  L 157.51 92.16
  Z"
/>
<path fill="#f4dc90" d="
  M 131.91 88.47
  Q 131.85 88.80 131.90 89.01
  Q 131.95 89.25 132.25 89.32
  Q 132.69 89.43 133.25 89.38
  L 128.67 91.46
  Q 128.18 91.68 128.18 92.21
  L 128.03 106.33
  Q 126.45 106.13 126.48 106.73
  A 0.90 0.89 3.1 0 1 125.43 107.66
  Q 119.49 106.61 114.23 107.19
  L 114.20 100.90
  A 0.29 0.28 70.1 0 0 113.74 100.68
  L 107.90 105.36
  A 2.07 2.06 70.6 0 0 107.13 106.97
  L 107.08 119.22
  Q 106.58 119.03 106.17 119.21
  L 105.92 114.06
  Q 105.89 113.51 105.49 113.13
  L 102.93 110.69
  A 0.66 0.65 45.3 0 0 102.03 110.68
  L 91.77 120.13
  Q 93.04 120.17 91.16 119.27
  C 99.84 111.32 107.88 103.13 117.45 96.33
  Q 124.39 91.50 131.91 88.47
  Z"
/>
<path fill="#afab37" d="
  M 134.93 91.91
  L 135.01 110.51
  L 134.93 129.21
  L 134.48 125.52
  A 0.95 0.95 0.0 0 0 133.11 124.79
  Q 131.71 125.50 130.31 124.86
  Q 129.89 124.67 129.50 124.91
  Q 128.13 125.72 128.08 128.60
  L 128.03 106.33
  L 128.18 92.21
  Q 128.18 91.68 128.67 91.46
  L 133.25 89.38
  Q 133.89 88.94 134.35 88.97
  A 0.59 0.58 2.2 0 1 134.88 89.54
  L 134.93 91.91
  Z"
/>
<path fill="#f4dc90" d="
  M 85.97 94.99
  Q 86.58 95.05 87.12 95.38
  Q 87.50 95.60 87.91 95.42
  Q 88.39 95.21 88.90 95.43
  Q 89.37 95.63 89.88 95.56
  L 95.94 94.69
  L 93.70 96.86
  Q 87.24 102.74 80.67 108.92
  Q 71.19 117.84 60.27 124.91
  L 47.24 130.89
  Q 47.00 130.39 47.29 129.66
  Q 50.35 128.99 52.81 127.29
  Q 53.23 127.00 53.23 126.50
  L 53.24 107.37
  L 53.31 98.21
  Q 54.29 97.74 54.75 97.79
  Q 59.96 98.35 63.14 96.12
  L 65.28 97.44
  Q 65.95 97.86 65.97 97.07
  C 66.00 95.75 65.87 94.52 66.42 93.27
  C 68.66 88.10 75.41 90.38 75.30 95.80
  Q 75.20 100.22 75.28 104.63
  Q 75.29 105.25 75.75 105.67
  L 78.79 108.41
  A 0.61 0.60 -45.3 0 0 79.61 108.40
  L 89.40 99.20
  A 0.73 0.73 0.0 0 0 89.39 98.13
  L 85.97 94.99
  Z
  M 67.13 117.84
  Q 67.12 118.83 67.92 118.23
  Q 70.33 116.42 72.99 114.25
  Q 74.22 113.25 74.23 111.72
  Q 74.29 102.57 73.97 95.39
  Q 73.83 92.17 70.63 91.82
  Q 70.25 91.78 69.89 91.89
  Q 67.27 92.64 67.26 95.36
  L 67.13 117.84
  Z"
/>
<path fill="#f4dc90" d="
  M 23.76 91.30
  L 23.71 121.72
  Q 23.37 122.14 22.87 121.34
  Q 22.64 120.97 22.20 120.97
  L 10.94 121.14
  A 0.85 0.84 -84.4 0 0 10.13 121.81
  L 10.08 122.08
  Q 9.98 122.56 9.49 122.56
  L 2.76 122.57
  L 2.76 93.95
  Q 3.36 92.30 6.06 92.31
  C 7.15 92.32 8.08 93.05 9.41 92.86
  Q 9.81 92.80 9.92 92.41
  Q 10.10 91.81 10.69 91.92
  Q 11.02 91.97 11.36 91.94
  Q 17.45 91.27 23.76 91.30
  Z"
/>
<path fill="#f4dc90" d="
  M 134.93 91.91
  L 150.50 92.23
  L 150.50 108.23
  L 150.40 109.00
  Q 150.65 111.23 148.01 111.12
  Q 141.55 110.84 136.49 112.02
  Q 135.24 112.31 135.01 110.51
  L 134.93 91.91
  Z"
/>
<path fill="#afab37" d="
  M 67.13 117.84
  L 67.26 95.36
  Q 67.27 92.64 69.89 91.89
  Q 70.25 91.78 70.63 91.82
  Q 73.83 92.17 73.97 95.39
  Q 74.29 102.57 74.23 111.72
  Q 74.22 113.25 72.99 114.25
  Q 70.33 116.42 67.92 118.23
  Q 67.12 118.83 67.13 117.84
  Z"
/>
<path fill="#f4dc90" d="
  M 178.47 93.29
  L 178.47 113.30
  L 172.40 113.20
  Q 171.91 113.19 171.53 112.87
  Q 170.53 112.00 169.51 111.90
  Q 163.31 111.24 157.53 112.72
  L 157.47 104.10
  L 157.51 92.16
  L 169.93 92.09
  Q 170.52 92.09 170.63 92.66
  Q 170.78 93.46 171.49 94.02
  Q 171.93 94.36 172.48 94.36
  L 176.99 94.36
  Q 177.46 94.36 177.59 94.81
  Q 177.63 94.95 177.84 94.91
  A 0.36 0.35 8.7 0 0 178.09 94.73
  Q 178.41 94.13 178.47 93.29
  Z"
/>
<path fill="#f4dc90" d="
  M 30.78 91.94
  Q 31.22 92.47 31.17 93.44
  Q 31.14 93.92 31.62 93.95
  Q 38.72 94.36 43.51 94.11
  Q 45.47 94.01 46.24 93.14
  L 46.27 103.88
  Q 40.59 103.75 35.50 104.82
  Q 34.13 105.11 30.76 104.14
  L 30.78 91.94
  Z"
/>
<path fill="#afab37" d="
  M 117.45 96.33
  C 107.88 103.13 99.84 111.32 91.16 119.27
  L 83.23 126.32
  Q 83.59 125.29 84.51 124.45
  Q 84.96 124.04 84.35 124.02
  Q 81.73 123.93 79.23 123.85
  Q 78.40 123.82 77.57 124.12
  C 76.34 124.56 75.15 124.14 73.91 124.17
  Q 70.53 124.25 66.99 124.40
  Q 66.82 124.40 65.02 124.74
  Q 64.03 124.93 62.99 124.64
  Q 62.51 124.51 62.06 124.72
  Q 61.14 125.13 60.27 124.91
  Q 71.19 117.84 80.67 108.92
  Q 87.24 102.74 93.70 96.86
  L 96.31 96.35
  Q 96.41 96.33 96.46 96.23
  Q 96.55 96.06 96.45 95.97
  Q 96.21 95.75 96.50 95.90
  Q 97.26 96.31 97.95 95.86
  A 1.28 1.27 -58.0 0 1 98.85 95.65
  Q 101.34 95.98 103.55 95.57
  Q 106.15 95.09 108.30 95.12
  Q 111.78 95.17 114.77 95.35
  Q 115.70 95.41 117.00 94.98
  Q 117.25 94.90 117.34 94.66
  A 0.44 0.44 0.0 0 1 117.58 94.42
  Q 118.17 94.18 118.47 94.45
  Q 118.84 94.79 118.41 95.04
  Q 117.44 95.63 117.45 96.33
  Z"
/>
<path fill="#afab37" d="
  M 114.23 107.19
  Q 114.34 116.01 114.10 124.49
  Q 114.03 127.32 110.90 127.99
  Q 110.49 128.07 110.08 127.95
  Q 107.51 127.13 107.33 125.51
  Q 106.84 121.18 107.08 119.22
  L 107.13 106.97
  A 2.07 2.06 70.6 0 1 107.90 105.36
  L 113.74 100.68
  A 0.29 0.28 70.1 0 1 114.20 100.90
  L 114.23 107.19
  Z"
/>
<path fill="#afab37" d="
  M 157.47 104.10
  L 157.53 112.72
  Q 157.45 125.55 157.59 137.09
  C 157.67 143.55 150.28 143.19 150.38 137.75
  Q 150.63 123.35 150.40 109.00
  L 150.50 108.23
  L 150.87 106.41
  Q 150.97 105.93 151.34 105.61
  Q 155.15 102.34 157.47 104.10
  Z"
/>
<path fill="#ebcf7c" d="
  M 46.27 103.88
  L 46.36 112.29
  L 46.30 129.26
  Q 46.30 129.81 46.86 129.78
  Q 47.05 129.77 47.29 129.66
  Q 47.00 130.39 47.24 130.89
  Q 36.23 134.62 24.56 134.17
  Q 20.91 134.03 19.50 134.58
  C 15.15 136.25 13.67 141.61 15.81 145.63
  Q 13.20 146.05 11.25 145.87
  Q 10.42 145.80 9.90 146.25
  Q 9.54 146.56 9.05 146.61
  Q 5.74 146.94 2.76 146.14
  L 2.76 122.57
  L 9.49 122.56
  Q 9.98 122.56 10.08 122.08
  L 10.13 121.81
  A 0.85 0.84 -84.4 0 1 10.94 121.14
  L 22.20 120.97
  Q 22.64 120.97 22.87 121.34
  Q 23.37 122.14 23.71 121.72
  L 23.71 132.09
  Q 23.71 133.11 24.73 133.10
  L 29.96 133.01
  Q 30.81 133.00 30.81 132.15
  L 30.76 104.14
  Q 34.13 105.11 35.50 104.82
  Q 40.59 103.75 46.27 103.88
  Z"
/>
<path fill="#ebcf7c" d="
  M 128.03 106.33
  L 128.08 128.60
  C 127.90 130.96 127.46 135.01 128.80 136.97
  C 130.48 139.42 134.44 138.42 134.82 135.51
  Q 135.09 133.44 134.93 129.21
  L 135.01 110.51
  Q 135.24 112.31 136.49 112.02
  Q 141.55 110.84 148.01 111.12
  Q 150.65 111.23 150.40 109.00
  Q 150.63 123.35 150.38 137.75
  C 150.28 143.19 157.67 143.55 157.59 137.09
  Q 157.45 125.55 157.53 112.72
  Q 163.31 111.24 169.51 111.90
  Q 170.53 112.00 171.53 112.87
  Q 171.91 113.19 172.40 113.20
  L 178.47 113.30
  L 178.47 135.28
  Q 177.84 136.12 176.99 135.87
  Q 176.24 135.65 175.46 135.63
  Q 174.97 135.61 174.51 135.43
  Q 168.08 132.92 161.14 133.68
  Q 160.97 133.70 161.11 133.60
  Q 161.24 133.52 161.31 133.39
  Q 161.56 132.93 161.03 132.99
  Q 159.58 133.16 158.81 133.80
  C 158.57 136.07 158.78 138.53 157.78 140.48
  C 156.23 143.50 152.36 143.66 150.39 140.84
  C 149.17 139.10 149.53 136.92 149.39 134.92
  A 0.87 0.86 89.6 0 0 148.58 134.11
  Q 142.34 133.80 136.87 132.07
  Q 135.79 131.73 135.95 132.85
  C 137.11 140.67 126.89 142.04 126.88 133.76
  Q 126.88 131.24 126.81 128.81
  Q 126.79 128.22 126.26 127.96
  Q 120.77 125.29 116.20 121.73
  Q 115.22 120.97 115.31 122.21
  C 115.67 127.47 111.20 131.60 106.93 127.15
  Q 105.71 123.64 106.17 119.21
  Q 106.58 119.03 107.08 119.22
  Q 106.84 121.18 107.33 125.51
  Q 107.51 127.13 110.08 127.95
  Q 110.49 128.07 110.90 127.99
  Q 114.03 127.32 114.10 124.49
  Q 114.34 116.01 114.23 107.19
  Q 119.49 106.61 125.43 107.66
  A 0.90 0.89 3.1 0 0 126.48 106.73
  Q 126.45 106.13 128.03 106.33
  Z"
/>
<path fill="#afab37" d="
  M 53.24 107.37
  L 53.23 126.50
  Q 53.23 127.00 52.81 127.29
  Q 50.35 128.99 47.29 129.66
  Q 47.05 129.77 46.86 129.78
  Q 46.30 129.81 46.30 129.26
  L 46.36 112.29
  L 46.48 108.96
  Q 46.49 108.46 46.82 108.07
  Q 47.75 106.98 49.20 106.77
  Q 49.69 106.70 50.10 106.98
  Q 51.55 107.97 53.24 107.37
  Z"
/>
<path fill="#afab37" d="
  M 106.17 119.21
  Q 105.71 123.64 106.93 127.15
  L 106.40 126.96
  Q 105.97 126.79 105.60 127.06
  Q 105.21 127.34 104.74 127.23
  Q 104.25 127.11 103.76 127.26
  L 102.43 127.67
  Q 102.03 127.80 101.65 127.62
  Q 101.06 127.35 100.34 128.00
  L 91.77 120.13
  L 102.03 110.68
  A 0.66 0.65 45.3 0 1 102.93 110.69
  L 105.49 113.13
  Q 105.89 113.51 105.92 114.06
  L 106.17 119.21
  Z"
/>
<path fill="#ebcf7c" d="
  M 91.16 119.27
  Q 93.04 120.17 91.77 120.13
  L 100.34 128.00
  L 112.95 137.71
  Q 111.36 139.05 109.71 138.18
  Q 109.53 138.09 109.33 138.12
  Q 109.19 138.14 109.10 138.27
  Q 108.99 138.43 108.80 138.41
  Q 104.18 137.79 102.71 137.84
  Q 93.49 138.10 83.42 137.97
  Q 83.34 137.97 76.10 138.22
  Q 72.21 138.35 68.23 137.57
  Q 76.46 132.36 83.23 126.32
  L 91.16 119.27
  Z"
/>
<path fill="#a69b20" d="
  M 158.81 133.80
  Q 165.02 134.52 166.08 139.70
  C 167.12 144.74 164.26 148.92 159.00 149.19
  Q 151.57 149.57 145.22 149.13
  C 133.68 148.33 122.94 143.94 112.95 137.71
  L 100.34 128.00
  Q 101.06 127.35 101.65 127.62
  Q 102.03 127.80 102.43 127.67
  L 103.76 127.26
  Q 104.25 127.11 104.74 127.23
  Q 105.21 127.34 105.60 127.06
  Q 105.97 126.79 106.40 126.96
  L 106.93 127.15
  C 111.20 131.60 115.67 127.47 115.31 122.21
  Q 115.22 120.97 116.20 121.73
  Q 120.77 125.29 126.26 127.96
  Q 126.79 128.22 126.81 128.81
  Q 126.88 131.24 126.88 133.76
  C 126.89 142.04 137.11 140.67 135.95 132.85
  Q 135.79 131.73 136.87 132.07
  Q 142.34 133.80 148.58 134.11
  A 0.87 0.86 89.6 0 1 149.39 134.92
  C 149.53 136.92 149.17 139.10 150.39 140.84
  C 152.36 143.66 156.23 143.50 157.78 140.48
  C 158.78 138.53 158.57 136.07 158.81 133.80
  Z"
/>
<path fill="#a69b20" d="
  M 83.23 126.32
  Q 76.46 132.36 68.23 137.57
  Q 47.17 150.89 21.50 149.25
  Q 17.76 149.01 15.81 145.63
  C 13.67 141.61 15.15 136.25 19.50 134.58
  Q 20.91 134.03 24.56 134.17
  Q 36.23 134.62 47.24 130.89
  L 60.27 124.91
  Q 61.14 125.13 62.06 124.72
  Q 62.51 124.51 62.99 124.64
  Q 64.03 124.93 65.02 124.74
  Q 66.82 124.40 66.99 124.40
  Q 70.53 124.25 73.91 124.17
  C 75.15 124.14 76.34 124.56 77.57 124.12
  Q 78.40 123.82 79.23 123.85
  Q 81.73 123.93 84.35 124.02
  Q 84.96 124.04 84.51 124.45
  Q 83.59 125.29 83.23 126.32
  Z"
/>
<path fill="#a69b20" d="
  M 134.93 129.21
  Q 135.09 133.44 134.82 135.51
  C 134.44 138.42 130.48 139.42 128.80 136.97
  C 127.46 135.01 127.90 130.96 128.08 128.60
  Q 128.13 125.72 129.50 124.91
  Q 129.89 124.67 130.31 124.86
  Q 131.71 125.50 133.11 124.79
  A 0.95 0.95 0.0 0 1 134.48 125.52
  L 134.93 129.21
  Z"
/>
<path fill="#d9ba59" d="
  M 178.47 135.28
  L 178.45 162.16
  A 0.69 0.69 0.0 0 1 178.06 162.78
  L 165.32 169.09
  L 128.52 169.17
  L 128.44 154.31
  Q 128.42 151.72 125.83 151.71
  L 125.53 151.70
  A 2.27 2.27 0.0 0 0 123.26 153.97
  L 123.26 161.51
  Q 123.26 162.04 122.73 162.04
  L 112.51 162.07
  A 0.39 0.38 0.7 0 1 112.12 161.68
  L 112.16 153.99
  A 2.21 2.21 0.0 0 0 110.77 151.92
  Q 109.64 151.46 108.73 151.76
  Q 107.04 152.32 107.03 154.09
  L 106.93 168.41
  Q 106.37 166.24 101.32 166.81
  Q 101.34 164.91 99.87 164.38
  Q 98.22 163.80 97.51 165.40
  L 96.33 168.09
  A 0.53 0.52 -52.8 0 1 95.45 168.22
  L 92.09 164.16
  A 0.52 0.52 0.0 0 1 92.23 163.37
  Q 93.88 162.39 95.24 161.07
  C 97.68 158.70 97.11 154.70 94.34 152.94
  Q 90.67 150.60 86.31 152.36
  C 81.83 154.18 81.70 159.17 84.82 162.30
  A 0.61 0.61 0.0 0 1 84.73 163.25
  Q 83.51 164.06 82.37 164.87
  Q 79.19 167.10 79.13 172.09
  Q 77.97 170.56 74.47 171.03
  C 77.01 163.50 75.11 153.41 66.26 151.95
  C 54.00 149.92 48.34 159.20 51.48 170.38
  Q 44.61 169.76 37.75 170.43
  Q 37.09 170.49 36.53 170.25
  A 1.70 1.59 55.1 0 0 35.87 170.11
  L 17.59 170.00
  L 3.19 162.83
  Q 2.77 162.62 2.77 162.16
  L 2.76 146.14
  Q 5.74 146.94 9.05 146.61
  Q 9.54 146.56 9.90 146.25
  Q 10.42 145.80 11.25 145.87
  Q 13.20 146.05 15.81 145.63
  Q 17.76 149.01 21.50 149.25
  Q 47.17 150.89 68.23 137.57
  Q 72.21 138.35 76.10 138.22
  Q 83.34 137.97 83.42 137.97
  Q 93.49 138.10 102.71 137.84
  Q 104.18 137.79 108.80 138.41
  Q 108.99 138.43 109.10 138.27
  Q 109.19 138.14 109.33 138.12
  Q 109.53 138.09 109.71 138.18
  Q 111.36 139.05 112.95 137.71
  C 122.94 143.94 133.68 148.33 145.22 149.13
  Q 151.57 149.57 159.00 149.19
  C 164.26 148.92 167.12 144.74 166.08 139.70
  Q 165.02 134.52 158.81 133.80
  Q 159.58 133.16 161.03 132.99
  Q 161.56 132.93 161.31 133.39
  Q 161.24 133.52 161.11 133.60
  Q 160.97 133.70 161.14 133.68
  Q 168.08 132.92 174.51 135.43
  Q 174.97 135.61 175.46 135.63
  Q 176.24 135.65 176.99 135.87
  Q 177.84 136.12 178.47 135.28
  Z"
/>
<path fill="#fde7a1" d="
  M 74.47 171.03
  C 71.33 178.32 62.36 179.69 55.94 176.16
  Q 52.87 174.10 51.48 170.38
  C 48.34 159.20 54.00 149.92 66.26 151.95
  C 75.11 153.41 77.01 163.50 74.47 171.03
  Z
  M 56.92 169.83
  A 9.15 7.37 89.8 0 0 61.98 173.85
  A 9.17 7.38 89.6 0 0 69.08 170.11
  A 9.17 7.37 89.6 0 0 69.56 160.44
  A 9.18 7.38 89.6 0 0 63.25 155.62
  A 9.18 7.38 89.7 0 0 56.68 160.19
  A 9.18 7.38 89.5 0 0 56.92 169.83
  Z"
/>
<path fill="#fde7a1" d="
  M 101.32 166.81
  L 99.58 171.16
  Q 99.40 171.61 99.77 171.94
  L 103.24 175.04
  Q 103.80 177.78 100.80 177.90
  A 2.05 2.04 -27.1 0 1 99.46 177.47
  L 97.03 175.57
  Q 96.43 175.09 95.78 175.49
  Q 84.65 182.14 79.13 172.09
  Q 79.19 167.10 82.37 164.87
  Q 83.51 164.06 84.73 163.25
  A 0.61 0.61 0.0 0 0 84.82 162.30
  C 81.70 159.17 81.83 154.18 86.31 152.36
  Q 90.67 150.60 94.34 152.94
  C 97.11 154.70 97.68 158.70 95.24 161.07
  Q 93.88 162.39 92.23 163.37
  A 0.52 0.52 0.0 0 0 92.09 164.16
  L 95.45 168.22
  A 0.53 0.52 -52.8 0 0 96.33 168.09
  L 97.51 165.40
  Q 98.22 163.80 99.87 164.38
  Q 101.34 164.91 101.32 166.81
  Z
  M 88.12 159.75
  Q 89.12 161.44 90.68 160.24
  Q 91.49 159.61 92.12 158.83
  A 2.39 2.38 -51.0 0 0 91.77 155.47
  Q 90.53 154.46 89.24 154.86
  Q 85.86 155.92 88.12 159.75
  Z
  M 92.77 171.77
  L 87.54 166.04
  A 0.45 0.45 0.0 0 0 86.91 166.01
  L 85.89 166.94
  A 4.62 4.23 -42.4 0 0 85.33 173.18
  L 85.47 173.33
  A 4.62 4.23 -42.4 0 0 91.73 173.33
  L 92.75 172.41
  A 0.45 0.45 0.0 0 0 92.77 171.77
  Z"
/>
<path fill="#fde7a1" d="
  M 128.52 169.17
  L 128.67 175.54
  Q 125.21 181.12 123.03 175.04
  L 123.11 166.96
  Q 123.11 166.41 122.55 166.40
  L 112.93 166.36
  Q 112.34 166.36 112.34 166.94
  L 112.31 175.23
  Q 110.16 180.74 106.87 175.99
  L 106.93 168.41
  L 107.03 154.09
  Q 107.04 152.32 108.73 151.76
  Q 109.64 151.46 110.77 151.92
  A 2.21 2.21 0.0 0 1 112.16 153.99
  L 112.12 161.68
  A 0.39 0.38 0.7 0 0 112.51 162.07
  L 122.73 162.04
  Q 123.26 162.04 123.26 161.51
  L 123.26 153.97
  A 2.27 2.27 0.0 0 1 125.53 151.70
  L 125.83 151.71
  Q 128.42 151.72 128.44 154.31
  L 128.52 169.17
  Z"
/>
<path fill="#d9ba59" d="
  M 88.12 159.75
  Q 85.86 155.92 89.24 154.86
  Q 90.53 154.46 91.77 155.47
  A 2.39 2.38 -51.0 0 1 92.12 158.83
  Q 91.49 159.61 90.68 160.24
  Q 89.12 161.44 88.12 159.75
  Z"
/>
<path fill="#d9ba59" d="
  M 69.08 170.11
  L 56.92 169.83
  A 9.18 7.38 89.5 0 1 56.68 160.19
  A 9.18 7.38 89.7 0 1 63.25 155.62
  A 9.18 7.38 89.6 0 1 69.56 160.44
  A 9.17 7.37 89.6 0 1 69.08 170.11
  Z"
/>
<path fill="#b2953d" d="
  M 92.77 171.77
  A 0.45 0.45 0.0 0 1 92.75 172.41
  L 91.73 173.33
  A 4.62 4.23 -42.4 0 1 85.47 173.33
  L 85.33 173.18
  A 4.62 4.23 -42.4 0 1 85.89 166.94
  L 86.91 166.01
  A 0.45 0.45 0.0 0 1 87.54 166.04
  L 92.77 171.77
  Z"
/>
<path fill="#b2953d" d="
  M 123.03 175.04
  L 112.31 175.23
  L 112.34 166.94
  Q 112.34 166.36 112.93 166.36
  L 122.55 166.40
  Q 123.11 166.41 123.11 166.96
  L 123.03 175.04
  Z"
/>
<path fill="#b2953d" d="
  M 101.32 166.81
  Q 106.37 166.24 106.93 168.41
  L 106.87 175.99
  Q 105.42 173.67 103.24 175.04
  L 99.77 171.94
  Q 99.40 171.61 99.58 171.16
  L 101.32 166.81
  Z"
/>
<path fill="#b2953d" d="
  M 165.32 169.09
  L 153.09 175.30
  L 128.67 175.54
  L 128.52 169.17
  L 165.32 169.09
  Z"
/>
<path fill="#b2953d" d="
  M 56.92 169.83
  L 69.08 170.11
  A 9.17 7.38 89.6 0 1 61.98 173.85
  A 9.15 7.37 89.8 0 1 56.92 169.83
  Z"
/>
<path fill="#b2953d" d="
  M 17.59 170.00
  L 35.87 170.11
  A 1.70 1.59 55.1 0 1 36.53 170.25
  Q 37.09 170.49 37.75 170.43
  Q 44.61 169.76 51.48 170.38
  Q 52.87 174.10 55.94 176.16
  L 28.57 175.56
  L 17.59 170.00
  Z"
/>
<path fill="#998033" d="
  M 74.47 171.03
  Q 77.97 170.56 79.13 172.09
  Q 84.65 182.14 95.78 175.49
  Q 96.43 175.09 97.03 175.57
  L 99.46 177.47
  A 2.05 2.04 -27.1 0 0 100.80 177.90
  Q 103.80 177.78 103.24 175.04
  Q 105.42 173.67 106.87 175.99
  Q 110.16 180.74 112.31 175.23
  L 123.03 175.04
  Q 125.21 181.12 128.67 175.54
  L 153.09 175.30
  L 140.94 181.20
  Q 122.93 180.55 117.99 180.71
  Q 109.10 180.99 104.00 180.76
  Q 103.24 180.72 102.53 180.84
  Q 101.72 180.97 100.94 180.86
  C 97.78 180.39 94.88 180.86 91.77 180.89
  Q 85.20 180.96 78.94 180.62
  C 77.00 180.52 74.72 181.08 72.25 180.62
  Q 71.78 180.53 71.23 180.70
  Q 70.61 180.88 70.25 180.88
  Q 54.40 180.94 38.52 180.53
  L 28.57 175.56
  L 55.94 176.16
  C 62.36 179.69 71.33 178.32 74.47 171.03
  Z"
/>
<path fill="#856f2c" d="
  M 38.52 180.53
  Q 54.40 180.94 70.25 180.88
  Q 70.61 180.88 71.23 180.70
  Q 71.78 180.53 72.25 180.62
  C 74.72 181.08 77.00 180.52 78.94 180.62
  Q 85.20 180.96 91.77 180.89
  C 94.88 180.86 97.78 180.39 100.94 180.86
  Q 101.72 180.97 102.53 180.84
  Q 103.24 180.72 104.00 180.76
  Q 109.10 180.99 117.99 180.71
  Q 122.93 180.55 140.94 181.20
  L 129.83 186.58
  L 50.49 186.47
  L 38.52 180.53
  Z"
/>
<path fill="#675621" d="
  M 50.49 186.47
  L 129.83 186.58
  L 119.72 191.80
  L 60.65 191.62
  L 50.49 186.47
  Z"
/>
<path fill="#473b16" d="
  M 60.65 191.62
  L 119.72 191.80
  L 103.41 200.05
  L 78.18 200.15
  L 60.65 191.62
  Z"
/>
<path fill="#211b0a" d="
  M 103.41 200.05
  Q 98.43 202.57 93.14 204.91
  Q 91.27 205.74 89.26 205.09
  Q 83.82 203.31 78.18 200.15
  L 103.41 200.05
  Z"
/>
</svg>
